<svg width="72" height="65" viewBox="0 0 72 65" fill="none" xmlns="http://www.w3.org/2000/svg">
<path d="M68.5008 25.6851H58.7149V65H68.5008C70.3023 65 71.7627 63.5332 71.7627 61.7238V28.9613C71.7627 27.1519 70.3023 25.6851 68.5008 25.6851ZM51.2357 21.4493L30.3576 0.479815C29.7838 -0.0966389 28.875 -0.161476 28.2259 0.327634L25.4448 2.42259C23.8637 3.61357 23.1513 5.6429 23.6389 7.56648L27.4009 22.4088H6.52387C2.92073 22.4088 -1.62125e-05 25.3425 -1.62125e-05 28.9613V35.8556C-1.62125e-05 36.7117 0.166997 37.5592 0.491234 38.3504L10.585 62.971C11.0883 64.1986 12.2796 65 13.6013 65H48.9291C50.7306 65 52.191 63.5332 52.191 61.7238V23.7659C52.191 22.897 51.8474 22.0637 51.2357 21.4493Z" fill="white"/>
</svg>
