<svg width="49" height="45" viewBox="0 0 49 45" fill="none" xmlns="http://www.w3.org/2000/svg">
<path d="M24.6882 0.001061C17.8429 -0.0807553 11.8406 4.57753 9.70908 11.0942C7.45427 17.9872 10.9319 23.4334 13.5755 27.5725C14.7115 29.3512 15.7295 30.9443 16.1403 32.3377C16.3494 33.047 16.9748 33.5457 17.7131 33.5457H18.7833C18.7833 31.1722 17.3267 28.8912 15.6395 26.2494C13.6672 23.1624 11.4333 19.664 11.4333 15.5461C11.4333 8.38723 17.1983 2.55209 24.3229 2.45555C29.9383 2.3811 34.787 6.06827 36.7739 11.3307C39.0459 17.3483 35.973 22.1594 33.3605 26.2494C31.6733 28.8912 30.2167 31.1722 30.2167 33.5457H31.2869C32.0252 33.5457 32.6506 33.0462 32.8597 32.3377C33.2713 30.9443 34.2885 29.3528 35.4245 27.5741C37.4711 24.3702 40.0167 20.3823 40.0167 15.5461C40.0167 7.03726 33.157 0.103331 24.6882 0.001061ZM5.43434 1.26825L3.92861 3.205L7.63232 6.09733L9.13805 4.16059L5.43434 1.26825ZM43.5673 1.27145L39.8619 4.16219L41.3677 6.09893L45.073 3.2066L43.5673 1.27145ZM0 14.728V17.1825H4.08333V14.728H0ZM44.9167 14.728V17.1825H49V14.728H44.9167ZM20.2556 16.1646L19.9653 16.3292C18.9526 16.9068 18.5233 18.1356 18.9349 19.2279C19.8552 21.6701 21.2333 26.5005 21.2333 33.5457H23.6833C23.6833 22.3042 20.3952 16.4108 20.2556 16.1646ZM28.7444 16.1646C28.6048 16.41 25.3167 22.3042 25.3167 33.5457H27.7667C27.7667 26.4997 29.144 21.6685 30.0635 19.2279C30.4751 18.1373 30.0481 16.9108 29.0379 16.3324L28.7444 16.1646ZM41.3677 24.995L39.8619 26.9317L43.5657 29.824L45.0714 27.8873L41.3677 24.995ZM7.63073 24.9966L3.92702 27.8889L5.43275 29.824L9.13646 26.9333L7.63073 24.9966ZM17.15 36.0002L17.6477 39.487C17.8396 40.8353 18.8455 41.9226 20.1726 42.2179L21.3274 42.4752C21.6661 43.9208 22.9538 45 24.5 45C26.0462 45 27.3339 43.9208 27.6726 42.4752L28.8274 42.2179C30.1545 41.9226 31.1604 40.8353 31.3523 39.487L31.85 36.0002H25.3167H23.6833H17.15Z" fill="white"/>
</svg>
