<svg width="1512" height="982" viewBox="0 0 1512 982" fill="none" xmlns="http://www.w3.org/2000/svg">
<rect width="1512" height="982" fill="#D43321"/>
<rect x="5" y="331" width="1502" height="646" fill="#FFB016" stroke="#FFB016" stroke-width="10"/>
<path d="M1245.63 926.992L1249.19 927.952L1248.16 930.032H1237.03V928.24L1240.03 925.872V921.616L1231.43 908.144L1229.09 906.96L1229.73 904.88H1240.64V906.672L1238.24 908.528L1243.97 917.456L1249.7 909.168L1245.03 906.928L1246.05 904.848H1256.39V906.64L1253.22 908.944L1245.63 920.048V926.992ZM1269.24 929.968H1257.91V928.176L1260.92 925.648V907.92L1257.37 906.896L1258.42 904.816H1269.75V906.608L1266.71 909.168V926.896L1270.26 927.888L1269.24 929.968ZM1296.31 909.2V930H1293.55L1278.55 912.88V926.224L1283.09 927.92L1282.07 930H1272.79V928.208L1275.79 925.68V908.88L1272.24 906.928L1273.3 904.848H1278.93L1293.55 921.488V908.592L1289.01 906.928L1290.07 904.848H1299.35V906.64L1296.31 909.2ZM1329.54 929.968H1318.21V928.176L1321.22 925.648V918.672H1310.37V926.864L1313.92 927.888L1312.9 929.968H1301.57V928.176L1304.58 925.648V907.92L1301.02 906.896L1302.08 904.816H1313.41V906.608L1310.37 909.168V916.208H1321.22V907.92L1317.66 906.896L1318.72 904.816H1330.05V906.608L1327.01 909.168V926.896L1330.56 927.888L1329.54 929.968ZM1360.01 930H1348.11V928.208L1351.59 926.128L1349.64 921.36H1339.75L1337.99 925.648L1342.89 927.92L1341.87 930H1331.53V928.208L1334.99 925.616L1343.18 905.872L1348.71 904.24L1357.8 926.288L1361.07 927.92L1360.01 930ZM1344.75 909.296L1340.78 918.896H1348.65L1344.75 909.296ZM1385.93 909.2V930H1383.18L1368.17 912.88V926.224L1372.72 927.92L1371.69 930H1362.41V928.208L1365.42 925.68V908.88L1361.87 906.928L1362.92 904.848H1368.56L1383.18 921.488V908.592L1378.64 906.928L1379.69 904.848H1388.97V906.64L1385.93 909.2ZM1420.55 930H1400.13V928.208L1403.14 925.84V907.856L1399.59 906.928L1400.64 904.848H1411.97V906.64L1408.93 909.008V927.568H1416.13L1421.09 920.4L1422.85 921.136V930.576L1420.55 930ZM1436.96 929.968H1425.63V928.176L1428.64 925.648V907.92L1425.09 906.896L1426.14 904.816H1437.47V906.608L1434.43 909.168V926.896L1437.98 927.888L1436.96 929.968ZM1464.12 909.008V920.08C1464.12 922.32 1463.56 924.24 1462.42 925.84C1461.32 927.44 1459.93 928.645 1458.26 929.456C1456.62 930.245 1455.02 930.64 1453.46 930.64C1451.42 930.64 1449.57 930.224 1447.93 929.392C1446.31 928.539 1445.04 927.376 1444.12 925.904C1443.22 924.411 1442.78 922.736 1442.78 920.88V907.856L1439.26 906.928L1440.28 904.848H1451.61V906.64L1448.57 909.008V919.728C1448.57 922.011 1449.16 923.792 1450.33 925.072C1451.5 926.331 1453.27 926.96 1455.64 926.96C1456.54 926.96 1457.42 926.693 1458.3 926.16C1459.17 925.605 1459.9 924.805 1460.47 923.76C1461.05 922.715 1461.34 921.477 1461.34 920.048V908.368L1457.62 906.928L1458.65 904.848H1467.16V906.64L1464.12 909.008Z" fill="white" fill-opacity="0.6"/>
</svg>
